<mxfile host="65bd71144e">
    <diagram id="qSeezHyTL4HUUI9GJHjN" name="Page-1">
        <mxGraphModel dx="902" dy="573" grid="0" gridSize="10" guides="1" tooltips="1" connect="1" arrows="1" fold="1" page="1" pageScale="1" pageWidth="1169" pageHeight="827" background="#ffffff" math="0" shadow="0">
            <root>
                <mxCell id="0"/>
                <mxCell id="1" parent="0"/>
                <mxCell id="6" style="edgeStyle=none;html=1;exitX=1;exitY=0.3333333333333333;exitDx=0;exitDy=0;exitPerimeter=0;entryX=0.026;entryY=0.368;entryDx=0;entryDy=0;entryPerimeter=0;fontColor=#000000;strokeColor=#000000;" edge="1" parent="1" source="2" target="4">
                    <mxGeometry relative="1" as="geometry"/>
                </mxCell>
                <mxCell id="11" style="edgeStyle=none;html=1;entryX=0;entryY=0.5;entryDx=0;entryDy=0;fontColor=#000000;strokeColor=#000000;" edge="1" parent="1" target="9">
                    <mxGeometry relative="1" as="geometry">
                        <mxPoint x="176" y="391" as="sourcePoint"/>
                        <Array as="points">
                            <mxPoint x="176" y="533"/>
                        </Array>
                    </mxGeometry>
                </mxCell>
                <mxCell id="12" style="edgeStyle=none;html=1;entryX=0;entryY=0.5;entryDx=0;entryDy=0;fontColor=#000000;strokeColor=#000000;" edge="1" parent="1" target="7">
                    <mxGeometry relative="1" as="geometry">
                        <mxPoint x="176" y="387" as="sourcePoint"/>
                        <Array as="points">
                            <mxPoint x="176" y="278"/>
                        </Array>
                    </mxGeometry>
                </mxCell>
                <mxCell id="2" value="Actor" style="shape=umlActor;verticalLabelPosition=bottom;verticalAlign=top;html=1;strokeColor=#000000;fillColor=none;fontColor=#000000;" vertex="1" parent="1">
                    <mxGeometry x="128" y="369" width="30" height="60" as="geometry"/>
                </mxCell>
                <mxCell id="3" value="" style="rounded=0;whiteSpace=wrap;html=1;strokeColor=#000000;fillColor=none;" vertex="1" parent="1">
                    <mxGeometry x="246" y="159" width="570" height="480" as="geometry"/>
                </mxCell>
                <mxCell id="4" value="" style="ellipse;whiteSpace=wrap;html=1;fontColor=#000000;strokeColor=#000000;fillColor=none;" vertex="1" parent="1">
                    <mxGeometry x="377" y="359" width="120" height="80" as="geometry"/>
                </mxCell>
                <mxCell id="5" value="ADD Module" style="text;html=1;strokeColor=none;fillColor=none;align=center;verticalAlign=middle;whiteSpace=wrap;rounded=0;fontColor=#000000;" vertex="1" parent="1">
                    <mxGeometry x="407" y="384" width="60" height="30" as="geometry"/>
                </mxCell>
                <mxCell id="7" value="" style="ellipse;whiteSpace=wrap;html=1;fontColor=#000000;strokeColor=#000000;fillColor=none;" vertex="1" parent="1">
                    <mxGeometry x="377" y="238" width="120" height="80" as="geometry"/>
                </mxCell>
                <mxCell id="8" value="Go to monitoring interface" style="text;html=1;strokeColor=none;fillColor=none;align=center;verticalAlign=middle;whiteSpace=wrap;rounded=0;fontColor=#000000;" vertex="1" parent="1">
                    <mxGeometry x="407" y="263" width="60" height="30" as="geometry"/>
                </mxCell>
                <mxCell id="9" value="" style="ellipse;whiteSpace=wrap;html=1;fontColor=#000000;strokeColor=#000000;fillColor=none;" vertex="1" parent="1">
                    <mxGeometry x="377" y="493" width="120" height="80" as="geometry"/>
                </mxCell>
                <mxCell id="10" value="Check logs" style="text;html=1;strokeColor=none;fillColor=none;align=center;verticalAlign=middle;whiteSpace=wrap;rounded=0;fontColor=#000000;" vertex="1" parent="1">
                    <mxGeometry x="407" y="518" width="60" height="30" as="geometry"/>
                </mxCell>
                <mxCell id="15" style="edgeStyle=none;html=1;fontSize=36;fontColor=#000000;strokeColor=#000000;exitX=0.009;exitY=0.401;exitDx=0;exitDy=0;exitPerimeter=0;" edge="1" parent="1" source="13">
                    <mxGeometry relative="1" as="geometry">
                        <mxPoint x="875" y="345" as="sourcePoint"/>
                        <mxPoint x="747" y="272" as="targetPoint"/>
                        <Array as="points">
                            <mxPoint x="776" y="345"/>
                            <mxPoint x="776" y="272"/>
                        </Array>
                    </mxGeometry>
                </mxCell>
                <mxCell id="21" style="edgeStyle=none;html=1;entryX=1;entryY=0.5;entryDx=0;entryDy=0;fontSize=12;fontColor=#000000;strokeColor=#000000;" edge="1" parent="1" target="20">
                    <mxGeometry relative="1" as="geometry">
                        <mxPoint x="879" y="384" as="sourcePoint"/>
                    </mxGeometry>
                </mxCell>
                <mxCell id="13" value="" style="whiteSpace=wrap;html=1;aspect=fixed;fontColor=#000000;strokeColor=#000000;fillColor=none;" vertex="1" parent="1">
                    <mxGeometry x="881" y="277" width="171" height="171" as="geometry"/>
                </mxCell>
                <mxCell id="14" value="&lt;font style=&quot;font-size: 36px&quot;&gt;IOT HUB&lt;/font&gt;" style="text;html=1;strokeColor=none;fillColor=none;align=center;verticalAlign=middle;whiteSpace=wrap;rounded=0;fontColor=#000000;" vertex="1" parent="1">
                    <mxGeometry x="883" y="331" width="159.5" height="30" as="geometry"/>
                </mxCell>
                <mxCell id="16" value="Get Current info" style="ellipse;whiteSpace=wrap;html=1;fontColor=#000000;strokeColor=#000000;fillColor=none;" vertex="1" parent="1">
                    <mxGeometry x="626" y="235" width="120" height="80" as="geometry"/>
                </mxCell>
                <mxCell id="20" value="&lt;span style=&quot;font-size: 12px&quot;&gt;connect new module&lt;/span&gt;" style="ellipse;whiteSpace=wrap;html=1;fontSize=36;fontColor=#000000;strokeColor=#000000;fillColor=none;" vertex="1" parent="1">
                    <mxGeometry x="626" y="344" width="120" height="80" as="geometry"/>
                </mxCell>
                <mxCell id="22" value="&amp;lt;&amp;lt;include&amp;gt;&amp;gt;" style="endArrow=open;endSize=12;dashed=1;html=1;fontSize=12;fontColor=#000000;strokeColor=#000000;labelBackgroundColor=none;" edge="1" parent="1">
                    <mxGeometry x="-0.0466" y="7" width="160" relative="1" as="geometry">
                        <mxPoint x="497" y="274.29" as="sourcePoint"/>
                        <mxPoint x="625" y="274" as="targetPoint"/>
                        <mxPoint as="offset"/>
                    </mxGeometry>
                </mxCell>
                <mxCell id="23" value="&amp;lt;&amp;lt;include&amp;gt;&amp;gt;" style="endArrow=open;endSize=12;dashed=1;html=1;fontSize=12;fontColor=#000000;strokeColor=#000000;labelBackgroundColor=none;" edge="1" parent="1">
                    <mxGeometry x="-0.0466" y="7" width="160" relative="1" as="geometry">
                        <mxPoint x="498" y="384.28999999999996" as="sourcePoint"/>
                        <mxPoint x="626" y="384" as="targetPoint"/>
                        <mxPoint as="offset"/>
                    </mxGeometry>
                </mxCell>
                <mxCell id="24" value="IOT Monitoring APP" style="text;align=center;fontStyle=1;verticalAlign=middle;spacingLeft=3;spacingRight=3;strokeColor=none;rotatable=0;points=[[0,0.5],[1,0.5]];portConstraint=eastwest;fontSize=12;fontColor=#000000;fillColor=none;" vertex="1" parent="1">
                    <mxGeometry x="491" y="120" width="80" height="26" as="geometry"/>
                </mxCell>
            </root>
        </mxGraphModel>
    </diagram>
</mxfile>